<mxfile host="Electron" agent="Mozilla/5.0 (Windows NT 10.0; Win64; x64) AppleWebKit/537.36 (KHTML, like Gecko) draw.io/24.7.17 Chrome/128.0.6613.36 Electron/32.0.1 Safari/537.36" version="24.7.17">
  <diagram name="Page-1" id="c7488fd3-1785-93aa-aadb-54a6760d102a">
    <mxGraphModel dx="722" dy="734" grid="0" gridSize="10" guides="1" tooltips="1" connect="1" arrows="1" fold="1" page="1" pageScale="1" pageWidth="1100" pageHeight="850" background="none" math="0" shadow="0">
      <root>
        <mxCell id="0" />
        <mxCell id="1" parent="0" />
        <mxCell id="2b4e8129b02d487f-1" value="" style="swimlane;html=1;childLayout=stackLayout;horizontal=1;startSize=20;horizontalStack=0;rounded=0;shadow=0;labelBackgroundColor=none;strokeWidth=1;fontFamily=Verdana;fontSize=8;align=center;" parent="1" vertex="1">
          <mxGeometry x="160" y="70" width="560" height="570" as="geometry">
            <mxRectangle x="160" y="70" width="60" height="20" as="alternateBounds" />
          </mxGeometry>
        </mxCell>
        <mxCell id="2b4e8129b02d487f-2" value="数据分析" style="swimlane;html=1;startSize=20;horizontal=0;shadow=0;fillColor=#E1D5E7;" parent="2b4e8129b02d487f-1" vertex="1">
          <mxGeometry y="20" width="560" height="170" as="geometry">
            <mxRectangle y="20" width="540" height="26" as="alternateBounds" />
          </mxGeometry>
        </mxCell>
        <mxCell id="T_TdVYFOBzU6QosxDR1C-2" value="&lt;font face=&quot;Noto Serif SC&quot;&gt;&lt;b style=&quot;&quot;&gt;POI 数据&lt;/b&gt;&lt;/font&gt;" style="rounded=1;whiteSpace=wrap;html=1;fillColor=#D5E8D4;" parent="2b4e8129b02d487f-2" vertex="1">
          <mxGeometry x="60" y="10" width="80" height="40" as="geometry" />
        </mxCell>
        <mxCell id="T_TdVYFOBzU6QosxDR1C-59" value="" style="edgeStyle=orthogonalEdgeStyle;rounded=0;orthogonalLoop=1;jettySize=auto;html=1;fontFamily=Helvetica;fontSize=12;fontColor=default;" parent="2b4e8129b02d487f-2" source="T_TdVYFOBzU6QosxDR1C-3" target="T_TdVYFOBzU6QosxDR1C-52" edge="1">
          <mxGeometry relative="1" as="geometry" />
        </mxCell>
        <mxCell id="T_TdVYFOBzU6QosxDR1C-3" value="&lt;font face=&quot;Noto Serif SC&quot;&gt;&lt;b style=&quot;&quot;&gt;电子订单数据&lt;/b&gt;&lt;/font&gt;" style="rounded=1;whiteSpace=wrap;html=1;fillColor=#D5E8D4;" parent="2b4e8129b02d487f-2" vertex="1">
          <mxGeometry x="420" y="10" width="80" height="40" as="geometry" />
        </mxCell>
        <mxCell id="T_TdVYFOBzU6QosxDR1C-4" value="&lt;font face=&quot;Noto Serif SC&quot;&gt;&lt;b style=&quot;&quot;&gt;地理栅格数据&lt;/b&gt;&lt;/font&gt;" style="whiteSpace=wrap;html=1;rounded=1;fillColor=#D5E8D4;" parent="2b4e8129b02d487f-2" vertex="1">
          <mxGeometry x="240" y="10" width="80" height="40" as="geometry" />
        </mxCell>
        <mxCell id="T_TdVYFOBzU6QosxDR1C-6" value="&lt;b style=&quot;background-color: initial;&quot;&gt;&lt;font face=&quot;Noto Serif SC&quot;&gt;土地利用类型数据&lt;/font&gt;&lt;/b&gt;" style="whiteSpace=wrap;html=1;rounded=1;fillColor=#B9E0A5;" parent="2b4e8129b02d487f-2" vertex="1">
          <mxGeometry x="240" y="90" width="80" height="40" as="geometry" />
        </mxCell>
        <mxCell id="T_TdVYFOBzU6QosxDR1C-29" value="&lt;font data-font-src=&quot;https://fonts.googleapis.com/css?family=Noto+Sans+Simplified+Chinese&quot;&gt;&lt;b&gt;探索性分析&lt;/b&gt;&lt;/font&gt;" style="swimlane;fontStyle=0;childLayout=stackLayout;horizontal=1;startSize=30;horizontalStack=0;resizeParent=1;resizeParentMax=0;resizeLast=0;collapsible=1;marginBottom=0;whiteSpace=wrap;html=1;rounded=1;strokeColor=default;align=center;verticalAlign=middle;fontFamily= Noto Serif SC;fontSize=12;fontColor=default;fillColor=#A9C4EB;" parent="2b4e8129b02d487f-2" vertex="1">
          <mxGeometry x="60" y="80" width="100" height="70" as="geometry" />
        </mxCell>
        <mxCell id="T_TdVYFOBzU6QosxDR1C-30" value="&lt;font&gt;数据订单处理&lt;/font&gt;" style="text;strokeColor=none;fillColor=none;align=left;verticalAlign=middle;spacingLeft=4;spacingRight=4;overflow=hidden;points=[[0,0.5],[1,0.5]];portConstraint=eastwest;rotatable=0;whiteSpace=wrap;html=1;fontFamily= Noto Serif SC;fontSize=12;fontColor=default;" parent="T_TdVYFOBzU6QosxDR1C-29" vertex="1">
          <mxGeometry y="30" width="100" height="20" as="geometry" />
        </mxCell>
        <mxCell id="T_TdVYFOBzU6QosxDR1C-31" value="&lt;font data-font-src=&quot;https://fonts.googleapis.com/css?family=Noto+Serif+Simplified+Chinese&quot;&gt;浅层特征挖掘&lt;/font&gt;" style="text;strokeColor=none;fillColor=none;align=left;verticalAlign=middle;spacingLeft=4;spacingRight=4;overflow=hidden;points=[[0,0.5],[1,0.5]];portConstraint=eastwest;rotatable=0;whiteSpace=wrap;html=1;fontFamily= Noto Serif SC;fontSize=12;fontColor=default;" parent="T_TdVYFOBzU6QosxDR1C-29" vertex="1">
          <mxGeometry y="50" width="100" height="20" as="geometry" />
        </mxCell>
        <mxCell id="T_TdVYFOBzU6QosxDR1C-46" value="" style="endArrow=none;html=1;rounded=0;fontFamily=Helvetica;fontSize=12;fontColor=default;entryX=0;entryY=0.5;entryDx=0;entryDy=0;" parent="2b4e8129b02d487f-2" source="T_TdVYFOBzU6QosxDR1C-2" target="T_TdVYFOBzU6QosxDR1C-4" edge="1">
          <mxGeometry width="50" height="50" relative="1" as="geometry">
            <mxPoint x="180" y="30" as="sourcePoint" />
            <mxPoint x="210" as="targetPoint" />
          </mxGeometry>
        </mxCell>
        <mxCell id="T_TdVYFOBzU6QosxDR1C-52" value="&lt;b style=&quot;background-color: initial;&quot;&gt;&lt;font face=&quot;Noto Serif SC&quot;&gt;停车点数据&lt;/font&gt;&lt;/b&gt;" style="whiteSpace=wrap;html=1;rounded=1;fillColor=#B9E0A5;" parent="2b4e8129b02d487f-2" vertex="1">
          <mxGeometry x="420" y="90" width="80" height="40" as="geometry" />
        </mxCell>
        <mxCell id="T_TdVYFOBzU6QosxDR1C-57" value="" style="endArrow=classic;html=1;rounded=0;fontFamily=Helvetica;fontSize=12;fontColor=default;exitX=1;exitY=0.5;exitDx=0;exitDy=0;entryX=0;entryY=0.5;entryDx=0;entryDy=0;" parent="2b4e8129b02d487f-2" source="T_TdVYFOBzU6QosxDR1C-4" target="T_TdVYFOBzU6QosxDR1C-3" edge="1">
          <mxGeometry width="50" height="50" relative="1" as="geometry">
            <mxPoint x="370" y="230" as="sourcePoint" />
            <mxPoint x="480" y="90" as="targetPoint" />
          </mxGeometry>
        </mxCell>
        <mxCell id="T_TdVYFOBzU6QosxDR1C-58" value="&lt;font&gt;&lt;b&gt;最邻近匹配&lt;/b&gt;&lt;/font&gt;" style="edgeLabel;html=1;align=center;verticalAlign=middle;resizable=0;points=[];rounded=1;strokeColor=default;fontFamily= Noto Serif SC;fontSize=12;fontColor=default;fillColor=default;" parent="T_TdVYFOBzU6QosxDR1C-57" vertex="1" connectable="0">
          <mxGeometry relative="1" as="geometry">
            <mxPoint as="offset" />
          </mxGeometry>
        </mxCell>
        <mxCell id="T_TdVYFOBzU6QosxDR1C-62" value="" style="endArrow=none;html=1;rounded=0;fontFamily=Helvetica;fontSize=12;fontColor=default;exitX=1;exitY=0.5;exitDx=0;exitDy=0;entryX=0;entryY=0.5;entryDx=0;entryDy=0;" parent="2b4e8129b02d487f-2" source="T_TdVYFOBzU6QosxDR1C-6" target="T_TdVYFOBzU6QosxDR1C-52" edge="1">
          <mxGeometry width="50" height="50" relative="1" as="geometry">
            <mxPoint x="360" y="180" as="sourcePoint" />
            <mxPoint x="410" y="130" as="targetPoint" />
          </mxGeometry>
        </mxCell>
        <mxCell id="T_TdVYFOBzU6QosxDR1C-26" value="&lt;font data-font-src=&quot;https://fonts.googleapis.com/css?family=Noto+Sans+Simplified+Chinese&quot;&gt;&lt;b&gt;核密度分析&lt;/b&gt;&lt;/font&gt;" style="text;html=1;align=center;verticalAlign=middle;whiteSpace=wrap;rounded=0;fontFamily= Noto Serif SC;fontSize=12;fontColor=default;" parent="2b4e8129b02d487f-2" vertex="1">
          <mxGeometry x="190" y="80" height="60" as="geometry" />
        </mxCell>
        <mxCell id="0MGBgO4JKW_0HKqMLMIU-43" value="" style="edgeStyle=segmentEdgeStyle;endArrow=classic;html=1;curved=0;rounded=0;endSize=8;startSize=8;entryX=0;entryY=0.5;entryDx=0;entryDy=0;" parent="2b4e8129b02d487f-2" target="T_TdVYFOBzU6QosxDR1C-6" edge="1">
          <mxGeometry width="50" height="50" relative="1" as="geometry">
            <mxPoint x="200" y="30" as="sourcePoint" />
            <mxPoint x="210" y="80" as="targetPoint" />
            <Array as="points">
              <mxPoint x="210" y="30" />
              <mxPoint x="210" y="110" />
            </Array>
          </mxGeometry>
        </mxCell>
        <mxCell id="2b4e8129b02d487f-3" value="建模分析" style="swimlane;html=1;startSize=20;horizontal=0;fillColor=#9AC7BF;strokeColor=#23445d;" parent="2b4e8129b02d487f-1" vertex="1">
          <mxGeometry y="190" width="560" height="200" as="geometry">
            <mxRectangle y="217.5" width="540" height="26" as="alternateBounds" />
          </mxGeometry>
        </mxCell>
        <mxCell id="0MGBgO4JKW_0HKqMLMIU-7" value="" style="verticalLabelPosition=bottom;verticalAlign=top;html=1;shape=mxgraph.basic.rect;fillColor2=none;strokeWidth=1;size=20;indent=5;fillColor=none;dashed=1;" parent="2b4e8129b02d487f-3" vertex="1">
          <mxGeometry x="40" y="20" width="500" height="60" as="geometry" />
        </mxCell>
        <mxCell id="0MGBgO4JKW_0HKqMLMIU-12" value="" style="edgeStyle=orthogonalEdgeStyle;rounded=0;orthogonalLoop=1;jettySize=auto;html=1;" parent="2b4e8129b02d487f-3" source="0MGBgO4JKW_0HKqMLMIU-1" target="0MGBgO4JKW_0HKqMLMIU-11" edge="1">
          <mxGeometry relative="1" as="geometry" />
        </mxCell>
        <mxCell id="0MGBgO4JKW_0HKqMLMIU-1" value="&lt;font face=&quot;Noto Serif SC&quot;&gt;&lt;b&gt;停车点之间的距离&lt;/b&gt;&lt;/font&gt;" style="whiteSpace=wrap;html=1;fillColor=#F8CECC;rounded=1;glass=0;shadow=1;fillStyle=auto;gradientColor=none;" parent="2b4e8129b02d487f-3" vertex="1">
          <mxGeometry x="420" y="30" width="80" height="40" as="geometry" />
        </mxCell>
        <mxCell id="0MGBgO4JKW_0HKqMLMIU-17" value="" style="edgeStyle=orthogonalEdgeStyle;rounded=0;orthogonalLoop=1;jettySize=auto;html=1;" parent="2b4e8129b02d487f-3" source="0MGBgO4JKW_0HKqMLMIU-3" target="0MGBgO4JKW_0HKqMLMIU-13" edge="1">
          <mxGeometry relative="1" as="geometry" />
        </mxCell>
        <mxCell id="0MGBgO4JKW_0HKqMLMIU-3" value="&lt;font face=&quot;Noto Serif SC&quot;&gt;&lt;b&gt;停车点周围社会地理环境&lt;/b&gt;&lt;/font&gt;" style="whiteSpace=wrap;html=1;fillColor=#F8CECC;rounded=1;" parent="2b4e8129b02d487f-3" vertex="1">
          <mxGeometry x="240" y="30" width="80" height="40" as="geometry" />
        </mxCell>
        <mxCell id="0MGBgO4JKW_0HKqMLMIU-14" value="" style="edgeStyle=orthogonalEdgeStyle;rounded=0;orthogonalLoop=1;jettySize=auto;html=1;" parent="2b4e8129b02d487f-3" source="0MGBgO4JKW_0HKqMLMIU-11" target="0MGBgO4JKW_0HKqMLMIU-13" edge="1">
          <mxGeometry relative="1" as="geometry" />
        </mxCell>
        <mxCell id="0MGBgO4JKW_0HKqMLMIU-11" value="&lt;font face=&quot;Noto Serif SC&quot;&gt;&lt;b&gt;停车点相关&lt;/b&gt;&lt;/font&gt;&lt;div&gt;&lt;font face=&quot;Noto Serif SC&quot;&gt;&lt;b&gt;性网络构建&lt;/b&gt;&lt;/font&gt;&lt;/div&gt;" style="whiteSpace=wrap;html=1;fillColor=#F19C99;rounded=1;glass=0;shadow=1;fillStyle=auto;gradientColor=none;" parent="2b4e8129b02d487f-3" vertex="1">
          <mxGeometry x="420" y="110" width="80" height="40" as="geometry" />
        </mxCell>
        <mxCell id="0MGBgO4JKW_0HKqMLMIU-16" value="" style="edgeStyle=orthogonalEdgeStyle;rounded=0;orthogonalLoop=1;jettySize=auto;html=1;" parent="2b4e8129b02d487f-3" source="0MGBgO4JKW_0HKqMLMIU-13" target="0MGBgO4JKW_0HKqMLMIU-15" edge="1">
          <mxGeometry relative="1" as="geometry" />
        </mxCell>
        <mxCell id="0MGBgO4JKW_0HKqMLMIU-13" value="&lt;font face=&quot;Noto Serif SC&quot;&gt;&lt;b&gt;潮汐区域&lt;/b&gt;&lt;/font&gt;&lt;div&gt;&lt;font face=&quot;Noto Serif SC&quot;&gt;&lt;b&gt;识别聚类&lt;/b&gt;&lt;/font&gt;&lt;/div&gt;" style="whiteSpace=wrap;html=1;fillColor=#F19C99;rounded=1;glass=0;shadow=1;fillStyle=auto;gradientColor=none;" parent="2b4e8129b02d487f-3" vertex="1">
          <mxGeometry x="240" y="110" width="80" height="40" as="geometry" />
        </mxCell>
        <mxCell id="0MGBgO4JKW_0HKqMLMIU-15" value="&lt;b&gt;&lt;font face=&quot;Noto Serif SC&quot;&gt;潮汐区域&lt;/font&gt;&lt;/b&gt;&lt;div&gt;&lt;b&gt;&lt;font face=&quot;Noto Serif SC&quot;&gt;时空分布&lt;/font&gt;&lt;/b&gt;&lt;/div&gt;" style="whiteSpace=wrap;html=1;fillColor=#F19C99;rounded=1;glass=0;shadow=1;fillStyle=auto;gradientColor=none;" parent="2b4e8129b02d487f-3" vertex="1">
          <mxGeometry x="60" y="110" width="80" height="40" as="geometry" />
        </mxCell>
        <mxCell id="0MGBgO4JKW_0HKqMLMIU-18" value="&lt;font face=&quot;Noto Serif SC&quot;&gt;&lt;b&gt;解释性分析&lt;/b&gt;&lt;/font&gt;" style="text;html=1;align=center;verticalAlign=middle;whiteSpace=wrap;rounded=0;" parent="2b4e8129b02d487f-3" vertex="1">
          <mxGeometry x="280" y="80" width="80" height="30" as="geometry" />
        </mxCell>
        <mxCell id="0MGBgO4JKW_0HKqMLMIU-30" value="&lt;font&gt;&lt;b&gt;提取强&lt;/b&gt;&lt;/font&gt;&lt;b style=&quot;background-color: initial;&quot;&gt;源汇&lt;/b&gt;" style="text;html=1;align=center;verticalAlign=middle;whiteSpace=wrap;rounded=0;fontFamily= Noto Serif SC;" parent="2b4e8129b02d487f-3" vertex="1">
          <mxGeometry x="280" y="160" width="80" height="30" as="geometry" />
        </mxCell>
        <mxCell id="2b4e8129b02d487f-4" value="实验分析" style="swimlane;html=1;startSize=20;horizontal=0;fillColor=#fad7ac;strokeColor=#b46504;" parent="2b4e8129b02d487f-1" vertex="1">
          <mxGeometry y="390" width="560" height="180" as="geometry" />
        </mxCell>
        <mxCell id="0MGBgO4JKW_0HKqMLMIU-23" value="" style="edgeStyle=orthogonalEdgeStyle;rounded=0;orthogonalLoop=1;jettySize=auto;html=1;" parent="2b4e8129b02d487f-4" source="0MGBgO4JKW_0HKqMLMIU-21" target="0MGBgO4JKW_0HKqMLMIU-22" edge="1">
          <mxGeometry relative="1" as="geometry" />
        </mxCell>
        <mxCell id="0MGBgO4JKW_0HKqMLMIU-34" value="" style="edgeStyle=orthogonalEdgeStyle;rounded=0;orthogonalLoop=1;jettySize=auto;html=1;" parent="2b4e8129b02d487f-4" source="0MGBgO4JKW_0HKqMLMIU-21" target="0MGBgO4JKW_0HKqMLMIU-33" edge="1">
          <mxGeometry relative="1" as="geometry" />
        </mxCell>
        <mxCell id="0MGBgO4JKW_0HKqMLMIU-21" value="&lt;font face=&quot;Noto Serif SC&quot;&gt;&lt;b&gt;全市尺度聚类&lt;/b&gt;&lt;/font&gt;" style="whiteSpace=wrap;html=1;fillColor=#D4E1F5;rounded=1;glass=0;shadow=1;fillStyle=auto;gradientColor=none;" parent="2b4e8129b02d487f-4" vertex="1">
          <mxGeometry x="60" y="30" width="80" height="40" as="geometry" />
        </mxCell>
        <mxCell id="0MGBgO4JKW_0HKqMLMIU-40" value="" style="edgeStyle=orthogonalEdgeStyle;rounded=0;orthogonalLoop=1;jettySize=auto;html=1;" parent="2b4e8129b02d487f-4" source="0MGBgO4JKW_0HKqMLMIU-22" target="0MGBgO4JKW_0HKqMLMIU-37" edge="1">
          <mxGeometry relative="1" as="geometry" />
        </mxCell>
        <mxCell id="0MGBgO4JKW_0HKqMLMIU-22" value="热点地区聚类" style="whiteSpace=wrap;html=1;fillColor=#D4E1F5;rounded=1;glass=0;shadow=1;fillStyle=auto;gradientColor=none;fontFamily= Noto Serif SC;fontStyle=1" parent="2b4e8129b02d487f-4" vertex="1">
          <mxGeometry x="240" y="30" width="80" height="40" as="geometry" />
        </mxCell>
        <mxCell id="0MGBgO4JKW_0HKqMLMIU-38" value="" style="edgeStyle=orthogonalEdgeStyle;rounded=0;orthogonalLoop=1;jettySize=auto;html=1;" parent="2b4e8129b02d487f-4" source="0MGBgO4JKW_0HKqMLMIU-33" target="0MGBgO4JKW_0HKqMLMIU-37" edge="1">
          <mxGeometry relative="1" as="geometry" />
        </mxCell>
        <mxCell id="0MGBgO4JKW_0HKqMLMIU-33" value="&lt;font face=&quot;Noto Serif SC&quot;&gt;&lt;b&gt;潮汐特征&lt;span style=&quot;background-color: initial;&quot;&gt;识别&lt;/span&gt;&lt;/b&gt;&lt;/font&gt;" style="whiteSpace=wrap;html=1;fillColor=#A9C4EB;rounded=1;glass=0;shadow=1;fillStyle=auto;gradientColor=none;" parent="2b4e8129b02d487f-4" vertex="1">
          <mxGeometry x="60" y="110" width="80" height="40" as="geometry" />
        </mxCell>
        <mxCell id="0MGBgO4JKW_0HKqMLMIU-42" value="" style="edgeStyle=orthogonalEdgeStyle;rounded=0;orthogonalLoop=1;jettySize=auto;html=1;" parent="2b4e8129b02d487f-4" source="0MGBgO4JKW_0HKqMLMIU-37" target="0MGBgO4JKW_0HKqMLMIU-41" edge="1">
          <mxGeometry relative="1" as="geometry" />
        </mxCell>
        <mxCell id="0MGBgO4JKW_0HKqMLMIU-37" value="&lt;font face=&quot;Noto Serif SC&quot;&gt;&lt;b&gt;订单需求预测&lt;/b&gt;&lt;/font&gt;" style="whiteSpace=wrap;html=1;fillColor=#A9C4EB;rounded=1;glass=0;shadow=1;fillStyle=auto;gradientColor=none;" parent="2b4e8129b02d487f-4" vertex="1">
          <mxGeometry x="240" y="110" width="80" height="40" as="geometry" />
        </mxCell>
        <mxCell id="0MGBgO4JKW_0HKqMLMIU-41" value="&lt;font face=&quot;Noto Serif SC&quot;&gt;&lt;b&gt;结果分析&lt;/b&gt;&lt;/font&gt;" style="whiteSpace=wrap;html=1;fillColor=#A9C4EB;rounded=1;glass=0;shadow=1;fillStyle=auto;gradientColor=none;" parent="2b4e8129b02d487f-4" vertex="1">
          <mxGeometry x="430" y="110" width="80" height="40" as="geometry" />
        </mxCell>
        <mxCell id="0MGBgO4JKW_0HKqMLMIU-45" value="&lt;b&gt;&lt;font face=&quot;Noto Serif SC&quot;&gt;源汇栅格&lt;/font&gt;&lt;/b&gt;&lt;div&gt;&lt;b&gt;&lt;font face=&quot;Noto Serif SC&quot;&gt;单车调度&lt;/font&gt;&lt;/b&gt;&lt;/div&gt;" style="ellipse;shape=umlControl;whiteSpace=wrap;html=1;fillColor=none;strokeWidth=2;strokeColor=#000000;" parent="2b4e8129b02d487f-4" vertex="1">
          <mxGeometry x="430" y="10" width="80" height="80" as="geometry" />
        </mxCell>
        <mxCell id="0MGBgO4JKW_0HKqMLMIU-2" value="" style="edgeStyle=orthogonalEdgeStyle;rounded=0;orthogonalLoop=1;jettySize=auto;html=1;" parent="2b4e8129b02d487f-1" source="T_TdVYFOBzU6QosxDR1C-52" target="0MGBgO4JKW_0HKqMLMIU-1" edge="1">
          <mxGeometry relative="1" as="geometry" />
        </mxCell>
        <mxCell id="0MGBgO4JKW_0HKqMLMIU-4" value="" style="edgeStyle=orthogonalEdgeStyle;rounded=0;orthogonalLoop=1;jettySize=auto;html=1;" parent="2b4e8129b02d487f-1" source="T_TdVYFOBzU6QosxDR1C-6" target="0MGBgO4JKW_0HKqMLMIU-3" edge="1">
          <mxGeometry relative="1" as="geometry" />
        </mxCell>
        <mxCell id="0MGBgO4JKW_0HKqMLMIU-26" value="" style="endArrow=classic;html=1;rounded=0;exitX=0.5;exitY=1;exitDx=0;exitDy=0;entryX=0.5;entryY=0;entryDx=0;entryDy=0;" parent="2b4e8129b02d487f-1" source="0MGBgO4JKW_0HKqMLMIU-13" target="0MGBgO4JKW_0HKqMLMIU-22" edge="1">
          <mxGeometry relative="1" as="geometry">
            <mxPoint x="280" y="460" as="sourcePoint" />
            <mxPoint x="440" y="460" as="targetPoint" />
          </mxGeometry>
        </mxCell>
        <mxCell id="T_TdVYFOBzU6QosxDR1C-15" value="" style="endArrow=none;dashed=1;html=1;rounded=0;strokeWidth=2;" parent="1" edge="1">
          <mxGeometry width="50" height="50" relative="1" as="geometry">
            <mxPoint x="200" y="160" as="sourcePoint" />
            <mxPoint x="700" y="160" as="targetPoint" />
          </mxGeometry>
        </mxCell>
      </root>
    </mxGraphModel>
  </diagram>
</mxfile>
